PathFileType	3	(X/Y/Z)	F:\ViconData\AntennenMessung\Messung1\Session1\ID05.trc
DataRate	CameraRate	NumFrames	NumMarkers	Units	OrigDataRate	OrigDataStartFrame	OrigNumFrames
120.0	120.0	4	70	mm	120.0	499	1328	
Frame#	Time	Ashort			Along			Atop			A4			Bshort			Blong			Btop			B4			Cshort			Clong			Ctop			C4			Dshort			Dlong			Dtop			D4			Eshort			Elong			Etop			E4			Fshort			Flong			Ftop			F4			Gshort			Glong			Gtop			G4			Hshort			Hlong			Htop			H4			I1			I2			I3			I4			I5			WandAshort			WandAlong			WandAtop			WandA4			WandA15			WandBshort			WandB4			WandB5			WandBtop			WandBlong			WandCshort			WandClong			WandCtop			WandC4			WandC5			Acenter			Aantenna			Bcenter			Bantenna			Ccenter			Cantenna			Dcenter			Dantenna			Ecenter			Eantenna			Fcenter			Fantenna			Gcenter			Gantenna			Hcenter			Hantenna			Icenter			Iantenna			
		X1	Y1	Z1	X2	Y2	Z2	X3	Y3	Z3	X4	Y4	Z4	X5	Y5	Z5	X6	Y6	Z6	X7	Y7	Z7	X8	Y8	Z8	X9	Y9	Z9	X10	Y10	Z10	X11	Y11	Z11	X12	Y12	Z12	X13	Y13	Z13	X14	Y14	Z14	X15	Y15	Z15	X16	Y16	Z16	X17	Y17	Z17	X18	Y18	Z18	X19	Y19	Z19	X20	Y20	Z20	X21	Y21	Z21	X22	Y22	Z22	X23	Y23	Z23	X24	Y24	Z24	X25	Y25	Z25	X26	Y26	Z26	X27	Y27	Z27	X28	Y28	Z28	X29	Y29	Z29	X30	Y30	Z30	X31	Y31	Z31	X32	Y32	Z32	X33	Y33	Z33	X34	Y34	Z34	X35	Y35	Z35	X36	Y36	Z36	X37	Y37	Z37	X38	Y38	Z38	X39	Y39	Z39	X40	Y40	Z40	X41	Y41	Z41	X42	Y42	Z42	X43	Y43	Z43	X44	Y44	Z44	X45	Y45	Z45	X46	Y46	Z46	X47	Y47	Z47	X48	Y48	Z48	X49	Y49	Z49	X50	Y50	Z50	X51	Y51	Z51	X52	Y52	Z52	X53	Y53	Z53	X54	Y54	Z54	X55	Y55	Z55	X56	Y56	Z56	X57	Y57	Z57	X58	Y58	Z58	X59	Y59	Z59	X60	Y60	Z60	X61	Y61	Z61	X62	Y62	Z62	X63	Y63	Z63	X64	Y64	Z64	X65	Y65	Z65	X66	Y66	Z66	X67	Y67	Z67	X68	Y68	Z68	X69	Y69	Z69	X70	Y70	Z70	
499	4.15	-1038.2595	214.52122	-1644.2539	-1109.3248	203.50943	-1599.5629	-1063.5997	172.58792	-1625.603	-1054.0145	262.00259	-1635.0045	-1352.891	235.39061	1003.905	-1281.2408	227.0464	1052.297	-1323.093	194.04861	1020.8344	-1284.7214	287.90021	1052.8246	813.83972	187.69234	1209.6183	892.48468	178.28555	1179.3789	844.57764	145.19437	1198.2871	860.66571	292.27295	1167.4663	1115.7279	209.43718	-1401.5951	1056.177	194.01175	-1460.2522	1094.9904	162.18962	-1423.8967	1069.8965	238.55437	-1425.9491	-1204.4634	1685.941	-1563.3409	-1129.1003	1688.2863	-1606.3418	-1173.1243	1724.4062	-1581.9877	-1133.5397	1581.064	-1603.569	-1239.7192	1699.2904	1119.3412	-1309.491	1698.9999	1071.8773	-1270.3147	1736.1384	1096.698	-1244.6711	1593.9843	1106.5007	988.84424	1664.2518	1162.4017	955.95172	1702.4249	1181.2411	922.25543	1662.2162	1214.9521	939.86163	1659.2836	1160.0475	999.18866	1668.5449	-1579.5405	1058.7314	1669.9623	-1518.6951	1025.052	1708.0159	-1551.1711	1059.2789	1672.1987	-1585.6823	-187.90668	1141.5868	506.27725	-185.51985	1144.1517	427.36221	-186.98103	1179.6307	475.18073	-224.30853	1141.4806	473.27219	-139.27211	1144.0238	474.98016																																														-1068.9513	209.76543	-1624.9525	-1074.5072	248.36174	-1624.2772	-1321.5609	231.74196	1025.0651	-1319.9867	270.46701	1029.4116	848.4118	183.55714	1196.3251	852.28534	222.31364	1194.343	1088.7594	202.45152	-1428.1588	1082.8271	240.78354	-1432.2166	-1171.9156	1686.9537	-1581.912	-1170.6576	1647.9741	-1581.8334	-1271.0603	1699.1598	1098.0205	-1271.8462	1660.1926	1099.4142	953.58136	1705.1758	1182.5986	973.21094	1732.0953	1162.3252	1026.4739	1669.1943	-1551.6583	1027.9012	1630.2235	-1552.1473	-186.92982	1142.6365	473.97983	-186.87587	1103.657	472.71454
500	4.1583333	-1038.255	214.48993	-1644.2484	-1109.3127	203.49013	-1599.5398	-1063.5758	172.61349	-1625.5898	-1054.0352	262.02985	-1634.9883	-1353.0582	234.96214	1003.9498	-1281.3325	226.98163	1052.3859	-1323.0498	194.11247	1020.7807	-1284.616	287.8381	1052.8107	813.84125	187.71472	1209.6737	892.57227	178.39395	1179.3044	844.2995	145.49222	1198.2916	860.45441	292.36658	1167.332	1115.8015	209.73521	-1401.7394	1056.2617	194.06468	-1460.2361	1095.0198	162.18069	-1423.8866	1069.8813	238.56448	-1425.9652	-1204.4602	1685.9554	-1563.3475	-1129.097	1688.2229	-1606.0983	-1173.1208	1724.3835	-1581.9845	-1133.5372	1581.0157	-1603.5425	-1239.6908	1699.2457	1119.3384	-1309.397	1698.8201	1071.8058	-1270.338	1736.1859	1096.7092	-1244.6136	1594.0594	1106.627	988.83734	1664.24	1162.4142	955.74908	1702.1259	1181.1069	922.70642	1662.0748	1215.049	939.81122	1659.3221	1159.9951	999.17798	1668.5449	-1579.5308	1058.7617	1669.9738	-1518.6897	1025.0452	1708.022	-1551.1768	1059.2971	1672.1187	-1585.4861	-187.91183	1141.6128	506.27643	-185.52695	1144.1559	427.35873	-186.97581	1179.6188	475.17374	-224.3029	1141.4468	473.28479	-139.27092	1144.0219	474.98123																																														-1068.9225	209.74255	-1624.9526	-1074.4806	248.33878	-1624.2904	-1321.7865	231.48271	1025.0674	-1320.4775	270.20682	1029.5093	848.10944	183.65778	1196.4552	851.979	222.4205	1194.5902	1088.7404	202.61287	-1428.3264	1082.7899	240.92595	-1432.5334	-1171.8997	1686.9349	-1581.818	-1170.6285	1647.9562	-1581.6445	-1270.9889	1699.0544	1097.9962	-1271.672	1660.0839	1099.3469	953.33124	1704.8942	1182.4727	972.6239	1731.8691	1161.9508	1026.4712	1669.1993	-1551.6615	1027.9026	1630.2286	-1552.1482	-186.93594	1142.6533	473.9837	-186.89391	1103.6735	472.72888
501	4.1666667	-1038.2621	214.45082	-1644.2139	-1109.2371	203.21014	-1599.6051	-1063.4895	172.64507	-1625.6315	-1054.0128	262.00992	-1635.0103	-1353.0118	235.38091	1003.8955	-1281.3046	227.06166	1052.386	-1322.9718	194.17113	1020.793	-1284.6045	287.86136	1052.7692	813.88416	187.70532	1209.7637	892.83875	178.84795	1178.8297	844.32214	145.51291	1198.2413	860.86316	292.06375	1169.1532	1115.7421	209.42549	-1401.5916	1056.2197	194.05835	-1460.2793	1095.0881	162.27637	-1423.896	1069.8733	238.55144	-1425.9639	-1204.4583	1685.9423	-1563.3348	-1129.1256	1688.3613	-1606.6664	-1173.1274	1724.3988	-1581.9908	-1133.5168	1581.0282	-1603.5514	-1239.72	1699.2897	1119.347	-1309.4552	1698.9485	1071.8562	-1270.3259	1736.161	1096.7019	-1244.7524	1593.8088	1106.509	988.89966	1664.2695	1162.408	955.86572	1702.3939	1181.2096	922.66937	1662.094	1215.0372	939.81104	1659.3265	1159.975	999.18353	1668.5563	-1579.5295	1058.8743	1670.1447	-1518.6622	1025.0513	1708.0081	-1551.173	1059.2836	1672.1587	-1585.5854	-187.91852	1141.5988	506.29987	-185.50441	1144.1588	427.34787	-187.00798	1179.6097	475.18097	-224.31747	1141.4636	473.27844	-139.26718	1144.0365	474.98346																																														-1068.913	209.59645	-1624.9493	-1074.5756	248.17662	-1624.2372	-1321.5668	231.73274	1025.1594	-1320.1188	270.44513	1029.6598	847.91718	183.88737	1196.4296	851.55103	222.6745	1194.5983	1088.8545	202.48383	-1428.1019	1082.9114	240.81915	-1432.1121	-1171.9504	1686.9861	-1582.0333	-1170.7242	1648.0054	-1582.0775	-1271.0404	1699.1362	1098.0172	-1271.7926	1660.1682	1099.4016	953.62927	1704.9749	1182.4824	973.07098	1731.9025	1162.0392	1026.5457	1669.2843	-1551.6279	1028.0494	1630.3162	-1552.0859	-186.9304	1142.6466	473.98471	-186.84862	1103.667	472.72324
502	4.175	-1038.2701	214.453	-1644.2244	-1109.2964	203.42667	-1599.5322	-1063.5721	172.5769	-1625.6145	-1054.0391	262.04843	-1635.0079	-1352.9637	235.24243	1003.8658	-1281.2749	227.02623	1052.3898	-1323.0509	194.06335	1020.827	-1284.5996	287.85162	1052.7549	813.85938	187.68753	1209.6851	892.823	178.83025	1178.9047	844.54187	145.23116	1198.2452	860.43475	292.37598	1167.3938	1115.7916	209.72157	-1401.7427	1056.2135	194.06018	-1460.2743	1095.0403	162.29701	-1423.8679	1069.8624	238.5735	-1425.9342	-1204.454	1685.931	-1563.3425	-1129.089	1688.2827	-1606.334	-1173.1506	1724.3284	-1581.9161	-1133.5062	1581.0034	-1603.5044	-1239.6846	1699.2189	1119.3137	-1309.4412	1698.9305	1071.8365	-1270.3416	1736.1991	1096.7111	-1244.6771	1593.9458	1106.6532	988.85974	1664.2517	1162.4268	955.81946	1702.3102	1181.2578	922.1167	1662.2456	1214.9132	939.82404	1659.3055	1160.0458	999.18195	1668.5392	-1579.519	1058.8612	1670.1321	-1518.6727	1025.0509	1708.005	-1551.1641	1059.2931	1672.166	-1585.588	-187.88049	1141.5792	506.30777	-185.52138	1144.1598	427.36224	-186.97507	1179.6273	475.16971	-224.29317	1141.4563	473.28574	-139.27718	1144.0251	474.98245																																														-1068.9122	209.696	-1624.9432	-1074.465	248.29239	-1624.2452	-1321.6219	231.65036	1025.0801	-1320.1497	270.3754	1029.4622	848.12555	183.84392	1196.3279	851.7254	222.62962	1194.4019	1088.7775	202.62029	-1428.2823	1082.8265	240.93469	-1432.4771	-1171.962	1686.9448	-1581.8772	-1170.7228	1647.9646	-1581.8368	-1271.0447	1699.0891	1097.9696	-1271.7832	1660.1185	1099.2915	953.27966	1705.2357	1182.7054	972.8501	1732.2336	1162.4788	1026.5477	1669.2694	-1551.618	1028.0535	1630.3013	-1552.075	-186.91391	1142.6366	473.9624	-186.84949	1103.6573	472.69016
